# xmcd
#
# Track frame offsets:
#	150
#	14106
#	33872
#	45646
#	61774
#	79877
#	95300
#
# Disc length: 1455 seconds
# Revision: 0
# Processed by: cddbd v1.5.2PL0 Copyright (c) Steve Scherf et al.
# Submitted via: dBpowerAMP V12.0
#
DISCID=4e05ad07
DTITLE=The Roys - New Day Dawning
DYEAR=2012
DGENRE=Country
TTITLE0=New Day Dawning
TTITLE1=Daddy to Me
TTITLE2=Still Standing
TTITLE3=Windin' Roads
TTITLE4=Grandpa's Barn
TTITLE5=Living Scrapbook
TTITLE6=Fast As We Roll
EXTD=
EXTT0=
EXTT1=
EXTT2=
EXTT3=
EXTT4=
EXTT5=
EXTT6=
PLAYORDER=
